<mxfile host="Electron" agent="Mozilla/5.0 (Windows NT 10.0; Win64; x64) AppleWebKit/537.36 (KHTML, like Gecko) draw.io/26.0.4 Chrome/128.0.6613.186 Electron/32.2.5 Safari/537.36" version="26.0.4">
  <diagram id="kgpKYQtTHZ0yAKxKKP6v" name="Page-1">
    <mxGraphModel dx="3200" dy="1987" grid="1" gridSize="10" guides="1" tooltips="1" connect="1" arrows="1" fold="1" page="1" pageScale="1" pageWidth="850" pageHeight="1100" math="0" shadow="0">
      <root>
        <mxCell id="0" />
        <mxCell id="1" parent="0" />
        <mxCell id="HTIju_ECd1YtV74uIiLn-66" style="edgeStyle=orthogonalEdgeStyle;rounded=0;orthogonalLoop=1;jettySize=auto;html=1;exitX=0.5;exitY=0;exitDx=0;exitDy=0;entryX=0.5;entryY=1;entryDx=0;entryDy=0;" edge="1" parent="1" source="HTIju_ECd1YtV74uIiLn-49" target="HTIju_ECd1YtV74uIiLn-62">
          <mxGeometry relative="1" as="geometry">
            <Array as="points">
              <mxPoint x="-1480" y="210" />
              <mxPoint x="-840" y="210" />
              <mxPoint x="-840" y="140" />
            </Array>
          </mxGeometry>
        </mxCell>
        <mxCell id="HTIju_ECd1YtV74uIiLn-49" value="&lt;b&gt;Creator&lt;/b&gt;" style="swimlane;childLayout=stackLayout;horizontal=1;startSize=50;horizontalStack=0;rounded=1;fontSize=14;fontStyle=0;strokeWidth=2;resizeParent=0;resizeLast=1;shadow=0;dashed=0;align=center;arcSize=4;whiteSpace=wrap;html=1;" vertex="1" parent="1">
          <mxGeometry x="-1600" y="280" width="240" height="240" as="geometry" />
        </mxCell>
        <mxCell id="HTIju_ECd1YtV74uIiLn-50" value="+Attribute1&#xa;+Attribute2&#xa;+Attribute3" style="align=left;strokeColor=none;fillColor=none;spacingLeft=4;fontSize=12;verticalAlign=top;resizable=0;rotatable=0;part=1;html=1;" vertex="1" parent="HTIju_ECd1YtV74uIiLn-49">
          <mxGeometry y="50" width="240" height="190" as="geometry" />
        </mxCell>
        <mxCell id="HTIju_ECd1YtV74uIiLn-65" style="edgeStyle=orthogonalEdgeStyle;rounded=0;orthogonalLoop=1;jettySize=auto;html=1;exitX=0.5;exitY=0;exitDx=0;exitDy=0;entryX=0.5;entryY=1;entryDx=0;entryDy=0;" edge="1" parent="1" source="HTIju_ECd1YtV74uIiLn-53" target="HTIju_ECd1YtV74uIiLn-61">
          <mxGeometry relative="1" as="geometry">
            <Array as="points">
              <mxPoint x="-840" y="140" />
            </Array>
          </mxGeometry>
        </mxCell>
        <mxCell id="HTIju_ECd1YtV74uIiLn-53" value="&lt;b&gt;Investor&lt;/b&gt;" style="swimlane;childLayout=stackLayout;horizontal=1;startSize=50;horizontalStack=0;rounded=1;fontSize=14;fontStyle=0;strokeWidth=2;resizeParent=0;resizeLast=1;shadow=0;dashed=0;align=center;arcSize=4;whiteSpace=wrap;html=1;" vertex="1" parent="1">
          <mxGeometry x="-960" y="280" width="240" height="240" as="geometry" />
        </mxCell>
        <mxCell id="HTIju_ECd1YtV74uIiLn-54" value="+Attribute1&#xa;+Attribute2&#xa;+Attribute3" style="align=left;strokeColor=none;fillColor=none;spacingLeft=4;fontSize=12;verticalAlign=top;resizable=0;rotatable=0;part=1;html=1;" vertex="1" parent="HTIju_ECd1YtV74uIiLn-53">
          <mxGeometry y="50" width="240" height="190" as="geometry" />
        </mxCell>
        <mxCell id="HTIju_ECd1YtV74uIiLn-67" style="edgeStyle=orthogonalEdgeStyle;rounded=0;orthogonalLoop=1;jettySize=auto;html=1;exitX=0.5;exitY=0;exitDx=0;exitDy=0;entryX=0.5;entryY=1;entryDx=0;entryDy=0;" edge="1" parent="1" source="HTIju_ECd1YtV74uIiLn-55" target="HTIju_ECd1YtV74uIiLn-62">
          <mxGeometry relative="1" as="geometry">
            <Array as="points">
              <mxPoint x="-1160" y="210" />
              <mxPoint x="-840" y="210" />
              <mxPoint x="-840" y="140" />
            </Array>
          </mxGeometry>
        </mxCell>
        <mxCell id="HTIju_ECd1YtV74uIiLn-55" value="&lt;b&gt;Fan&lt;/b&gt;" style="swimlane;childLayout=stackLayout;horizontal=1;startSize=50;horizontalStack=0;rounded=1;fontSize=14;fontStyle=0;strokeWidth=2;resizeParent=0;resizeLast=1;shadow=0;dashed=0;align=center;arcSize=4;whiteSpace=wrap;html=1;" vertex="1" parent="1">
          <mxGeometry x="-1280" y="280" width="240" height="240" as="geometry" />
        </mxCell>
        <mxCell id="HTIju_ECd1YtV74uIiLn-56" value="+Attribute1&#xa;+Attribute2&#xa;+Attribute3" style="align=left;strokeColor=none;fillColor=none;spacingLeft=4;fontSize=12;verticalAlign=top;resizable=0;rotatable=0;part=1;html=1;" vertex="1" parent="HTIju_ECd1YtV74uIiLn-55">
          <mxGeometry y="50" width="240" height="190" as="geometry" />
        </mxCell>
        <mxCell id="HTIju_ECd1YtV74uIiLn-69" style="edgeStyle=orthogonalEdgeStyle;rounded=0;orthogonalLoop=1;jettySize=auto;html=1;entryX=0.5;entryY=1;entryDx=0;entryDy=0;" edge="1" parent="1" source="HTIju_ECd1YtV74uIiLn-57" target="HTIju_ECd1YtV74uIiLn-62">
          <mxGeometry relative="1" as="geometry">
            <Array as="points">
              <mxPoint x="-560" y="210" />
              <mxPoint x="-840" y="210" />
            </Array>
          </mxGeometry>
        </mxCell>
        <mxCell id="HTIju_ECd1YtV74uIiLn-70" value="Text" style="edgeLabel;html=1;align=center;verticalAlign=middle;resizable=0;points=[];" vertex="1" connectable="0" parent="HTIju_ECd1YtV74uIiLn-69">
          <mxGeometry x="-0.8332" y="-1" relative="1" as="geometry">
            <mxPoint x="1" as="offset" />
          </mxGeometry>
        </mxCell>
        <mxCell id="HTIju_ECd1YtV74uIiLn-57" value="&lt;b&gt;Supplier&lt;/b&gt;" style="swimlane;childLayout=stackLayout;horizontal=1;startSize=50;horizontalStack=0;rounded=1;fontSize=14;fontStyle=0;strokeWidth=2;resizeParent=0;resizeLast=1;shadow=0;dashed=0;align=center;arcSize=4;whiteSpace=wrap;html=1;" vertex="1" parent="1">
          <mxGeometry x="-680" y="280" width="240" height="240" as="geometry" />
        </mxCell>
        <mxCell id="HTIju_ECd1YtV74uIiLn-58" value="+Attribute1&#xa;+Attribute2&#xa;+Attribute3" style="align=left;strokeColor=none;fillColor=none;spacingLeft=4;fontSize=12;verticalAlign=top;resizable=0;rotatable=0;part=1;html=1;" vertex="1" parent="HTIju_ECd1YtV74uIiLn-57">
          <mxGeometry y="50" width="240" height="190" as="geometry" />
        </mxCell>
        <mxCell id="HTIju_ECd1YtV74uIiLn-68" style="edgeStyle=orthogonalEdgeStyle;rounded=0;orthogonalLoop=1;jettySize=auto;html=1;entryX=0.5;entryY=1;entryDx=0;entryDy=0;" edge="1" parent="1" source="HTIju_ECd1YtV74uIiLn-59" target="HTIju_ECd1YtV74uIiLn-62">
          <mxGeometry relative="1" as="geometry">
            <Array as="points">
              <mxPoint x="-240" y="210" />
              <mxPoint x="-840" y="210" />
            </Array>
          </mxGeometry>
        </mxCell>
        <mxCell id="HTIju_ECd1YtV74uIiLn-59" value="&lt;b&gt;Publisher&lt;/b&gt;" style="swimlane;childLayout=stackLayout;horizontal=1;startSize=50;horizontalStack=0;rounded=1;fontSize=14;fontStyle=0;strokeWidth=2;resizeParent=0;resizeLast=1;shadow=0;dashed=0;align=center;arcSize=4;whiteSpace=wrap;html=1;" vertex="1" parent="1">
          <mxGeometry x="-370" y="280" width="240" height="240" as="geometry" />
        </mxCell>
        <mxCell id="HTIju_ECd1YtV74uIiLn-60" value="+Attribute1&#xa;+Attribute2&#xa;+Attribute3" style="align=left;strokeColor=none;fillColor=none;spacingLeft=4;fontSize=12;verticalAlign=top;resizable=0;rotatable=0;part=1;html=1;" vertex="1" parent="HTIju_ECd1YtV74uIiLn-59">
          <mxGeometry y="50" width="240" height="190" as="geometry" />
        </mxCell>
        <mxCell id="HTIju_ECd1YtV74uIiLn-61" value="&lt;b&gt;User&lt;/b&gt;" style="swimlane;childLayout=stackLayout;horizontal=1;startSize=50;horizontalStack=0;rounded=1;fontSize=14;fontStyle=0;strokeWidth=2;resizeParent=0;resizeLast=1;shadow=0;dashed=0;align=center;arcSize=4;whiteSpace=wrap;html=1;" vertex="1" parent="1">
          <mxGeometry x="-970" y="-240" width="330" height="400" as="geometry" />
        </mxCell>
        <mxCell id="HTIju_ECd1YtV74uIiLn-62" value="+ Username&lt;br&gt;+ Email&lt;br&gt;+ Password&lt;div&gt;+ DateCreated&lt;/div&gt;&lt;div&gt;+ Type&lt;/div&gt;&lt;div&gt;+ PhoneNumber&lt;/div&gt;&lt;div&gt;+ Firstname&lt;/div&gt;&lt;div&gt;+ Lastname&lt;/div&gt;&lt;div&gt;+ Residential Address&lt;/div&gt;&lt;div&gt;+ BankingDetails&lt;/div&gt;&lt;div&gt;+ WalletAdress&lt;/div&gt;&lt;div&gt;+ Profile&lt;/div&gt;&lt;div&gt;+ Settings&lt;/div&gt;&lt;div&gt;+ Messages&lt;/div&gt;&lt;div&gt;+ Notifications&lt;/div&gt;&lt;div&gt;+ Comments&lt;/div&gt;&lt;div&gt;+ Likes&lt;/div&gt;&lt;div&gt;+ Votes&lt;/div&gt;" style="align=left;strokeColor=none;fillColor=none;spacingLeft=4;fontSize=12;verticalAlign=top;resizable=0;rotatable=0;part=1;html=1;" vertex="1" parent="HTIju_ECd1YtV74uIiLn-61">
          <mxGeometry y="50" width="330" height="350" as="geometry" />
        </mxCell>
        <mxCell id="HTIju_ECd1YtV74uIiLn-75" style="edgeStyle=orthogonalEdgeStyle;rounded=0;orthogonalLoop=1;jettySize=auto;html=1;exitX=0.5;exitY=1;exitDx=0;exitDy=0;" edge="1" parent="HTIju_ECd1YtV74uIiLn-61" source="HTIju_ECd1YtV74uIiLn-62" target="HTIju_ECd1YtV74uIiLn-62">
          <mxGeometry relative="1" as="geometry" />
        </mxCell>
      </root>
    </mxGraphModel>
  </diagram>
</mxfile>
